<svg xmlns="http://www.w3.org/2000/svg" xmlns:xlink="http://www.w3.org/1999/xlink" width="75" zoomAndPan="magnify" viewBox="0 0 375 374.999991" height="75" preserveAspectRatio="xMidYMid meet" version="1.2"><defs><clipPath id="4edc53708d"><path d="M 113.605469 129.988281 L 262.339844 129.988281 L 262.339844 222.984375 L 113.605469 222.984375 Z M 113.605469 129.988281 "/></clipPath><clipPath id="cdbae2e870"><path d="M 142.351562 136.703125 C 137.832031 137.269531 133.964844 138.25 130.726562 139.566406 C 123.984375 142.300781 119.574219 146.691406 118.21875 152.175781 C 116.863281 157.664062 118.617188 163.777344 122.902344 170.089844 C 125.3125 173.652344 128.53125 177.355469 132.636719 181.09375 C 136.894531 184.980469 141.988281 188.878906 149.15625 193.195312 C 156.324219 197.515625 165.15625 201.710938 174.222656 204.988281 C 184.472656 208.6875 195.699219 211.59375 206.792969 213.199219 C 232.734375 216.957031 257.039062 210.332031 262.339844 200.5 C 261.429688 205.179688 257.09375 209.617188 250.425781 213.035156 C 249.699219 222.242188 245.1875 226.214844 234 219.941406 L 231.769531 218.695312 C 225.011719 219.703125 217.5 219.914062 209.621094 219.050781 C 197.871094 217.765625 185.753906 214.824219 174.53125 210.851562 C 171.28125 209.699219 168.050781 208.433594 164.898438 207.085938 L 141.960938 219.941406 C 128.507812 227.484375 124.707031 220.21875 125.53125 206.84375 C 125.988281 199.410156 127.042969 192.0625 128.84375 184.828125 L 128.699219 184.695312 C 124.28125 180.609375 120.863281 176.542969 118.378906 172.613281 C 114.003906 165.703125 112.539062 158.898438 114.425781 153.074219 C 116.3125 147.242188 121.335938 142.804688 128.636719 139.929688 C 132.460938 138.421875 137.023438 137.296875 142.339844 136.652344 Z M 202.292969 200.929688 C 197.875 196.378906 197.574219 191.335938 197.574219 182.207031 L 197.574219 153.390625 L 187.980469 149.824219 L 178.386719 153.386719 L 178.386719 182.207031 C 178.386719 187.074219 178.300781 190.78125 177.550781 193.867188 C 181.40625 195.328125 185.335938 196.644531 189.242188 197.78125 C 193.585938 199.042969 197.96875 200.101562 202.292969 200.929688 Z M 178.386719 143.988281 L 178.386719 144.824219 L 183.964844 142.75 L 183.964844 130.011719 L 191.992188 130.011719 L 191.992188 142.753906 L 197.574219 144.824219 L 197.574219 143.988281 C 197.574219 128.195312 211.148438 126.136719 220.203125 135.925781 C 237.222656 154.328125 245.796875 173.992188 249.070312 194.441406 C 251.078125 192.582031 252.328125 190.574219 252.660156 188.578125 C 253.925781 181.039062 251.515625 178.039062 247.378906 172.65625 C 246.082031 170.972656 244.585938 169.300781 242.917969 167.652344 C 242.539062 166.769531 242.148438 165.894531 241.742188 165.023438 C 251.476562 173.015625 257.730469 181.605469 257.386719 190.265625 C 257.015625 199.730469 246.96875 206.679688 230.730469 208.230469 C 213.902344 209.835938 191.394531 205.707031 170.972656 196.980469 C 150.546875 188.25 137.394531 177.875 130.867188 167.933594 C 127.085938 162.175781 125.917969 156.601562 127.207031 151.871094 C 127.46875 155.371094 128.996094 159.191406 131.722656 163.097656 C 132.652344 164.433594 133.714844 165.78125 134.90625 167.140625 C 139.675781 156.410156 146.457031 145.980469 155.757812 135.925781 C 164.808594 126.136719 178.386719 128.195312 178.386719 143.988281 Z M 178.386719 143.988281 "/></clipPath></defs><g id="9b56046d91"><g clip-rule="nonzero" clip-path="url(#4edc53708d)"><g clip-rule="nonzero" clip-path="url(#cdbae2e870)"><path style=" stroke:none;fill-rule:nonzero;fill:#fa8500;fill-opacity:1;" d="M 113.605469 129.988281 L 113.605469 222.984375 L 262.339844 222.984375 L 262.339844 129.988281 Z M 113.605469 129.988281 "/></g></g></g></svg>